<?xml version="1.0" standalone="no"?>
<!DOCTYPE svg PUBLIC "-//W3C//DTD SVG 20010904//EN"
 "http://www.w3.org/TR/2001/REC-SVG-20010904/DTD/svg10.dtd">
<svg version="1.0" xmlns="http://www.w3.org/2000/svg"
 width="192.000000pt" height="192.000000pt" viewBox="0 0 192.000000 192.000000"
 preserveAspectRatio="xMidYMid meet">
<metadata>
Created by potrace 1.15, written by Peter Selinger 2001-2017
</metadata>
<g transform="translate(0.000000,192.000000) scale(0.100000,-0.100000)"
fill="#000000" stroke="none">
<path d="M995 1658 c9 -18 23 -45 31 -60 9 -17 11 -28 4 -28 -6 0 -6 -7 2 -21
11 -18 10 -23 -11 -40 -14 -12 -18 -19 -9 -19 8 0 20 6 28 13 12 10 12 9 1 -5
-16 -22 -113 -26 -110 -5 1 6 -3 23 -9 37 -11 23 -12 20 -9 -22 2 -49 -7 -64
-18 -29 -3 10 -2 26 1 36 5 12 4 16 -3 12 -16 -10 -26 -58 -14 -70 5 -5 27
-14 48 -18 36 -8 36 -8 -8 -4 -26 2 -49 2 -53 -2 -6 -6 63 -62 78 -63 4 0 6 7
2 15 -5 13 -2 14 17 4 12 -7 25 -17 29 -23 5 -7 8 -7 8 2 0 7 4 11 9 8 5 -4
11 0 14 6 2 7 11 -1 20 -19 12 -23 14 -34 5 -39 -7 -4 -8 -3 -4 4 4 7 2 12 -4
12 -6 0 -8 5 -4 11 4 7 -7 2 -24 -11 -22 -16 -38 -21 -56 -16 -42 10 -103 72
-113 114 l-9 37 -6 -33 c-2 -18 1 -44 9 -59 8 -15 11 -33 8 -40 -2 -8 -1 -11
4 -8 6 3 31 -6 56 -21 26 -14 56 -24 66 -21 10 3 17 2 14 -2 -6 -10 44 -33 55
-26 4 3 7 -3 6 -12 -2 -10 -19 -22 -42 -29 -21 -6 -32 -13 -24 -14 8 -1 2 -6
-14 -10 -37 -11 -42 -8 -50 33 -3 19 -12 41 -19 51 -11 15 -15 16 -43 1 -25
-12 -33 -24 -38 -55 -10 -63 -28 -49 -24 19 1 33 -1 63 -6 68 -5 5 -7 1 -3 -9
7 -21 -11 -35 -19 -15 -3 8 -23 23 -45 32 -25 12 -35 21 -28 26 21 13 -164
227 -227 262 -33 19 -24 -4 17 -43 24 -22 39 -40 35 -40 -5 0 -1 -9 10 -21 16
-17 16 -23 5 -42 -11 -18 -11 -20 0 -9 19 18 29 15 29 -9 0 -11 4 -18 9 -15 5
4 8 -2 7 -11 -2 -11 -12 -18 -27 -19 -13 0 -43 -7 -66 -14 -48 -15 -68 -6 -76
33 -3 12 -4 6 -4 -13 2 -34 3 -35 42 -34 22 0 49 4 60 8 11 4 7 0 -8 -9 -16
-9 -38 -18 -50 -21 -12 -2 -27 -11 -34 -19 -10 -14 -13 -14 -27 7 -9 12 -16
17 -16 11 0 -7 4 -14 10 -18 5 -3 7 -12 3 -20 -7 -20 3 -19 35 3 56 39 126 52
107 21 -4 -5 -1 -9 4 -9 6 0 11 5 11 10 0 6 4 10 10 10 20 0 -3 -30 -23 -30
-12 -1 -36 -2 -54 -2 -18 -1 -30 -5 -27 -12 3 -7 26 -10 62 -8 51 3 62 0 90
-23 17 -14 31 -29 31 -33 -3 -19 2 -25 10 -13 8 12 12 12 25 2 14 -12 16 -9
16 21 0 19 3 38 8 44 4 5 -2 0 -14 -11 -12 -11 -17 -21 -13 -23 5 -2 9 -8 9
-13 0 -5 -9 -4 -20 3 -19 12 -19 14 -3 26 17 12 9 17 -27 13 -13 -2 -13 -1 0
8 12 9 10 11 -10 12 -14 1 -31 1 -39 0 -7 -2 -11 4 -8 11 2 7 10 12 17 10 7
-1 18 3 26 9 12 10 13 9 8 -6 -5 -12 -4 -16 3 -12 6 4 13 1 16 -5 3 -9 9 -7
19 6 12 15 18 17 36 7 12 -6 22 -16 22 -21 0 -6 7 -10 15 -10 14 0 28 -34 25
-61 -2 -8 -2 -21 -1 -29 1 -13 2 -13 11 0 10 17 17 13 22 -15 2 -15 -4 -20
-35 -26 -51 -8 -59 -19 -14 -19 30 0 37 -4 37 -20 0 -13 -7 -20 -20 -20 -16 0
-20 -7 -20 -35 0 -21 5 -35 13 -35 14 0 39 -35 30 -44 -3 -3 -12 -1 -20 5 -10
9 -13 6 -13 -17 0 -21 3 -25 12 -16 9 9 15 9 25 0 12 -9 14 -4 11 32 -1 32 -7
44 -20 48 -11 3 -18 14 -18 29 0 18 4 24 14 20 10 -4 16 2 18 21 2 15 6 26 11
25 4 -2 21 -3 37 -3 20 0 30 -5 30 -15 0 -8 -9 -15 -20 -15 -24 0 -28 -35 -5
-44 19 -7 20 -36 1 -36 -9 0 -12 -7 -9 -20 3 -11 10 -20 17 -20 17 0 40 -40
24 -41 -57 -2 -97 -7 -117 -13 -16 -6 -21 -5 -17 3 4 7 -1 11 -13 11 -16 0
-21 8 -24 38 l-4 37 -1 -35 -2 -35 -57 -3 c-166 -8 -191 -2 -223 51 -11 18
-20 27 -20 21 0 -6 9 -23 20 -36 l19 -25 -34 3 c-20 1 -33 -1 -30 -5 2 -4 -9
-7 -25 -6 -23 1 -29 -2 -27 -18 4 -36 -26 -42 -71 -13 l-42 26 -15 -36 c-14
-35 -14 -39 15 -98 25 -52 37 -67 79 -89 56 -31 81 -36 61 -12 -10 12 -10 15
1 15 11 0 11 2 -1 10 -12 8 -13 11 -2 22 11 11 16 9 28 -6 13 -18 14 -17 14
22 0 40 -2 42 -29 42 -32 0 -48 -14 -30 -25 6 -4 16 -2 22 4 16 16 23 14 24
-7 1 -15 -4 -18 -24 -14 -20 4 -24 2 -19 -9 4 -8 0 -5 -8 5 -9 11 -18 17 -21
14 -3 -3 4 -16 15 -30 27 -35 12 -44 -21 -12 -15 14 -30 24 -34 22 -4 -1 -15
8 -24 22 -9 14 -11 21 -3 16 16 -9 16 6 0 24 -11 12 -10 12 2 3 8 -5 22 -11
30 -11 8 -1 24 -2 35 -4 17 -2 21 3 23 35 l3 37 85 0 c66 0 84 -3 84 -14 0 -8
3 -21 6 -30 5 -12 0 -16 -21 -16 l-26 0 7 -117 c10 -167 24 -249 18 -106 -3
76 -1 114 7 119 8 5 8 9 -1 14 -15 9 -6 40 10 40 6 0 8 -5 5 -10 -3 -6 -2 -10
4 -10 6 0 8 -7 5 -15 -4 -8 -2 -15 4 -15 5 0 12 27 14 59 2 33 10 67 18 76 8
9 15 24 16 32 3 20 12 28 21 19 4 -4 1 -12 -7 -17 -11 -8 -7 -9 18 -5 43 7 78
-7 95 -41 9 -16 20 -91 26 -178 7 -82 15 -152 17 -154 9 -9 -6 289 -16 314 -8
20 -6 27 11 36 19 10 21 8 19 -23 -3 -52 2 -57 9 -8 6 44 7 45 41 45 l35 0 5
-190 c5 -159 6 -174 10 -90 6 152 6 283 -1 290 -10 9 -61 10 -82 0 -20 -8 -32
-2 -23 13 3 5 31 10 63 11 32 1 60 6 61 11 5 15 109 12 124 -3 10 -11 17 -11
38 -1 17 9 37 10 63 5 21 -5 47 -6 59 -3 17 4 20 2 15 -11 -4 -12 1 -17 21
-19 l27 -3 3 -97 c2 -89 5 -98 22 -98 10 0 22 5 25 10 3 6 -3 10 -14 10 -17 0
-19 6 -18 50 2 64 20 65 28 3 l6 -48 1 62 c2 52 -1 61 -13 57 -10 -4 -15 0
-15 11 0 11 5 15 14 12 8 -3 17 0 20 8 3 9 0 12 -8 9 -8 -3 -20 3 -27 13 -8
10 -23 20 -34 21 -30 6 -32 12 -4 12 14 0 30 -5 35 -10 7 -7 20 -7 35 -2 36
13 82 5 100 -17 14 -17 19 -18 36 -6 55 39 155 22 184 -31 7 -14 19 -22 26
-20 7 3 13 1 13 -5 0 -6 6 -7 13 -3 9 6 9 5 0 -7 -10 -12 -8 -14 10 -14 12 1
31 7 43 13 16 9 21 8 21 -3 0 -8 -5 -11 -10 -8 -6 4 -8 0 -4 -9 6 -17 -15 -53
-30 -53 -11 0 -73 -51 -73 -60 0 -9 70 34 97 59 12 12 33 44 47 71 22 47 23
52 9 80 -9 17 -17 31 -18 33 -5 5 -57 -25 -82 -47 -34 -29 -28 -35 10 -11 l32
22 -27 -25 c-35 -32 -72 -27 -65 10 3 16 0 23 -7 20 -7 -3 -18 5 -26 16 -12
21 -12 21 6 7 18 -14 18 -14 5 3 -8 10 -20 16 -27 13 -23 -9 -26 12 -3 24 12
7 19 8 15 2 -3 -5 1 -12 8 -15 15 -6 15 20 1 43 -3 6 -1 10 4 10 6 0 11 -4 11
-10 0 -5 7 -10 15 -10 8 0 14 5 12 11 -1 6 4 13 11 15 7 1 8 0 3 -2 -6 -3 -7
-12 -4 -20 3 -9 -1 -14 -13 -14 -16 0 -17 -2 -4 -10 11 -7 20 -4 33 13 10 12
17 18 14 12 -7 -15 14 -30 48 -32 17 -2 41 -3 55 -4 27 -2 90 30 90 46 0 6 9
21 20 35 33 42 22 42 -16 1 -27 -31 -45 -41 -79 -46 -63 -10 -104 2 -118 33
-6 15 -15 30 -20 33 -11 8 20 32 33 24 5 -3 10 -12 10 -20 0 -9 11 -12 38 -9
33 3 35 1 19 -10 -16 -13 -16 -14 8 -18 53 -11 101 14 58 29 -26 9 -53 34 -47
44 7 12 -34 31 -49 23 -6 -4 -9 -3 -4 1 4 5 -1 17 -10 28 -10 11 7 4 39 -17
31 -20 62 -36 68 -36 14 0 34 20 43 43 6 16 5 16 -24 2 -34 -18 -58 -14 -85
17 -19 21 -19 21 4 9 22 -12 22 -11 10 8 -14 23 -1 56 22 56 24 0 36 -33 21
-57 -13 -21 -13 -22 2 -9 21 17 22 39 1 62 -18 20 -10 43 12 35 8 -3 14 0 14
7 0 7 9 18 21 25 34 22 15 24 -32 4 -53 -23 -164 -98 -236 -160 -42 -35 -54
-41 -59 -29 -3 9 -3 21 1 27 4 6 1 9 -7 8 -8 -2 -13 7 -13 22 0 14 -11 39 -23
55 l-24 30 -23 -27 c-13 -16 -28 -35 -33 -44 -10 -19 -46 -12 -82 17 -20 15
-21 18 -5 12 18 -6 19 -5 6 11 -11 13 -12 19 -2 29 10 9 11 8 5 -6 -4 -13 -2
-16 9 -12 11 5 13 0 9 -22 -2 -15 -2 -25 2 -21 8 7 14 31 15 61 1 14 5 16 18
8 10 -5 26 -5 41 0 14 5 33 7 43 4 11 -4 19 -2 19 4 0 6 10 11 22 11 12 0 18
3 15 7 -4 3 1 11 10 18 15 11 47 95 38 103 -2 2 -6 -7 -10 -20 -24 -77 -142
-125 -192 -79 -12 11 -23 17 -26 14 -3 -3 -3 6 0 19 4 18 3 20 -6 8 -6 -8 -11
-10 -11 -5 0 31 36 43 45 15 5 -16 10 -17 31 -10 13 5 24 7 24 4 0 -4 8 0 18
7 12 10 12 8 -3 -10 l-20 -23 30 6 c82 14 97 35 36 47 -49 10 -47 17 4 12 l45
-6 -1 44 c-1 28 -3 35 -6 17 -7 -45 -25 -52 -88 -33 -31 8 -59 14 -64 11 -4
-3 -8 1 -8 8 0 11 9 11 48 1 26 -7 51 -15 56 -18 16 -10 33 8 39 43 6 33 6 34
-9 15 -8 -11 -13 -23 -11 -26 2 -4 -3 -10 -12 -13 -8 -3 -12 -2 -9 4 3 6 -1 7
-10 4 -17 -7 -75 14 -75 27 0 5 7 6 16 2 14 -5 14 -3 2 16 -12 20 -11 24 11
42 13 11 18 19 10 19 -8 0 -4 9 11 24 14 13 32 33 40 44 10 16 16 18 22 9 6
-9 8 -9 8 0 0 24 -18 22 -57 -6 -58 -42 -125 -123 -201 -239 l-66 -104 -27 99
c-30 110 -66 204 -104 269 -30 51 -53 60 -30 12z m55 -528 c0 -11 -5 -19 -11
-17 -11 2 -12 -19 -10 -115 1 -25 4 -30 11 -18 5 8 9 38 8 67 -1 58 21 103 51
103 30 0 41 -24 50 -106 l8 -79 2 64 1 64 23 -21 c13 -12 27 -19 32 -15 4 5 3
-2 -3 -14 -10 -18 -9 -20 8 -16 15 4 20 0 20 -13 0 -14 -3 -16 -9 -6 -6 10
-10 10 -21 -3 -7 -8 -9 -15 -4 -15 5 0 0 -6 -11 -14 -26 -18 -68 -26 -135 -26
-84 1 -101 3 -96 15 2 5 8 9 13 8 5 -1 10 29 11 67 2 53 -1 69 -13 74 -8 3
-15 12 -15 21 0 11 11 15 45 15 38 0 45 -3 45 -20z m281 -9 c19 -15 22 -26 20
-72 -2 -30 -3 -65 -3 -78 0 -16 -3 -20 -8 -11 -5 8 -9 9 -14 1 -4 -6 -23 -11
-42 -11 l-34 0 0 49 c0 26 3 69 6 95 6 39 10 46 29 46 13 0 33 -8 46 -19z
m119 -10 c11 -22 13 -77 4 -134 -5 -28 -11 -37 -23 -35 -11 2 -15 12 -13 31 2
15 -1 27 -7 27 -6 0 -11 -13 -11 -30 0 -24 -4 -30 -21 -30 -20 0 -21 3 -14 83
4 45 12 88 17 95 16 19 56 14 68 -7z"/>
<path d="M117 1288 c29 -19 50 -38 47 -41 -3 -3 4 -8 16 -12 17 -6 21 -13 18
-36 -4 -28 -4 -28 15 -11 19 16 20 16 9 -4 -6 -11 -26 -32 -45 -47 l-34 -25
-23 28 c-13 16 -26 28 -27 26 -6 -6 32 -66 41 -66 5 0 31 16 57 35 27 19 53
35 58 35 15 0 5 -35 -10 -36 -27 -1 -51 -16 -39 -24 8 -5 7 -9 -5 -13 -10 -5
-14 -3 -9 4 4 7 1 10 -7 7 -8 -3 -14 -11 -14 -19 0 -8 -10 -18 -22 -24 -28
-12 -30 -34 -3 -34 11 -1 30 -1 41 -2 28 0 37 10 19 22 -11 7 -8 8 12 5 16 -3
32 1 39 10 6 7 16 11 23 7 6 -4 4 2 -4 12 -9 11 -10 16 -2 11 7 -4 12 -2 12 4
0 7 6 5 15 -4 8 -8 15 -21 15 -28 0 -11 2 -10 9 1 6 9 10 4 13 -18 6 -39 -6
-61 -24 -43 -9 9 -9 12 5 12 11 0 14 5 10 16 -5 13 -7 13 -14 2 -6 -9 -9 -4
-10 17 -2 27 -2 28 -6 5 -15 -83 -144 -92 -212 -15 -34 39 -42 35 -11 -5 11
-14 20 -32 20 -40 0 -9 10 -16 22 -17 11 -1 25 -7 29 -14 4 -7 14 -9 23 -6 9
4 16 1 16 -5 0 -7 5 -6 15 2 8 7 28 10 45 8 21 -3 31 0 35 11 3 11 16 16 37
15 35 -1 53 13 38 31 -5 6 -12 36 -16 67 -6 50 -5 55 15 61 11 3 21 1 21 -4 0
-5 -7 -9 -15 -9 -8 0 -15 -4 -15 -10 0 -5 4 -10 8 -10 14 0 32 24 32 43 0 16
-3 17 -15 7 -12 -10 -23 -5 -62 27 -64 52 -169 113 -207 120 -28 5 -26 2 21
-29z"/>
</g>
</svg>
